<?xml version="1.0" encoding="utf-8"?>
<!-- Generator: Adobe Illustrator 16.0.3, SVG Export Plug-In . SVG Version: 6.00 Build 0)  -->
<!DOCTYPE svg PUBLIC "-//W3C//DTD SVG 1.1//EN" "http://www.w3.org/Graphics/SVG/1.1/DTD/svg11.dtd">
<svg version="1.1" id="Ebene_1" xmlns="http://www.w3.org/2000/svg" xmlns:xlink="http://www.w3.org/1999/xlink" x="0px" y="0px"
	 width="200px" height="200px" viewBox="0 0 200 200" enable-background="new 0 0 200 200" xml:space="preserve">
<g>
	<polygon fill="#BE1225" points="67.139,138.098 67.139,183.197 95.101,183.197 95.101,155.236 151.024,154.785 151.024,183.197 
		181.694,183.197 181.694,138.098 	"/>
	<path fill="#202C55" d="M178.538,75.407c0,0-3.609-6.313-12.631-6.313c-9.018,0-81.63,0-81.63,0L56.315,42.033V20.384
		c0,0-0.437-5.828-7.217-5.863c-5.073-0.027-6.313,4.961-6.313,4.961l-4.96,13.982L27,27.149c0,0-6.766-4.059-10.824,0
		c-4.061,4.059,0,10.374,0,10.374l7.666,11.726L5.802,72.251c0,0-10.373,11.119-2.707,19.992c7.667,8.873,18.492,4.812,18.492,4.812
		l24.354-8.569l18.041,37.886h117.712v-15.786l5.863,7.894l12.628-7.894L178.538,75.407z M84.937,110.16l-9.604-5.047l-9.603,5.047
		l1.834-10.693l-7.772-7.574l10.738-1.56l4.802-9.731l4.802,9.731l10.738,1.56l-7.771,7.574L84.937,110.16z M126.174,110.16
		l-9.605-5.047l-9.604,5.047l1.834-10.693l-7.771-7.574l10.739-1.56l4.802-9.731l4.804,9.731l10.733,1.56l-7.771,7.574
		L126.174,110.16z M167.405,110.16l-9.602-5.047l-9.602,5.047l1.834-10.693l-7.771-7.574l10.736-1.56l4.803-9.731l4.798,9.731
		l10.739,1.56l-7.77,7.574L167.405,110.16z"/>
</g>
</svg>
