<?xml version="1.0" encoding="utf-8"?>
<!-- Generator: Adobe Illustrator 16.0.3, SVG Export Plug-In . SVG Version: 6.00 Build 0)  -->
<!DOCTYPE svg PUBLIC "-//W3C//DTD SVG 1.1//EN" "http://www.w3.org/Graphics/SVG/1.1/DTD/svg11.dtd">
<svg version="1.1" id="Ebene_2" xmlns="http://www.w3.org/2000/svg" xmlns:xlink="http://www.w3.org/1999/xlink" x="0px" y="0px"
	 width="200px" height="200px" viewBox="0 0 200 200" enable-background="new 0 0 200 200" xml:space="preserve">
<g>
	<path fill="#BE1225" d="M313.486,298.258v27.75h11v-13.875h20.125v13.875h10.25v-15c0,0-0.063-1.844,2.281-1.844
		s2.078,1.922,2.078,1.922l0.009,6.422c0,0-0.493,8.791,8.632,8.791s8.708-8.875,8.708-8.875l0.003-10.208l-6.586-0.005
		l0.041,10.838c0,0,0.021,1.871-2.25,1.875c-2.4,0.006-2.25-2.333-2.25-2.333l0.042-19.333H313.486z"/>
	<path fill="#202C55" d="M346.069,279.341h-14.401c0,0-12.744,0-17.599,15.167h51C365.069,294.508,362.402,279.591,346.069,279.341z
		 M329.911,291.856l-2.843-1.495l-2.844,1.495l0.543-3.166l-2.301-2.242l3.18-0.462l1.422-2.881l1.421,2.881l3.179,0.462
		l-2.301,2.242L329.911,291.856z M342.119,291.856l-2.844-1.495l-2.842,1.495l0.543-3.166l-2.301-2.242l3.178-0.462l1.422-2.881
		l1.422,2.881l3.18,0.462l-2.301,2.242L342.119,291.856z M354.328,291.856l-2.844-1.495l-2.844,1.495l0.543-3.166l-2.301-2.242
		l3.18-0.462l1.422-2.881l1.422,2.881l3.179,0.462l-2.301,2.242L354.328,291.856z"/>
</g>
<g>
	<path fill="#BE1225" d="M-0.169,89.24v93.89h34.661v-46.945h63.413v46.945h32.299v-50.751c0,0-0.196-6.237,7.188-6.237
		s6.548,6.502,6.548,6.502l0.028,21.727c0,0-1.554,29.744,27.199,29.744c28.751,0,27.438-30.027,27.438-30.027l0.009-34.538
		l-20.752-0.016l0.128,36.668c0,0,0.068,6.33-7.089,6.344c-7.563,0.02-7.089-7.893-7.089-7.893l0.133-65.413H-0.169z"/>
	<path fill="#202C55" d="M102.501,25.238H57.124c0,0-40.16,0-55.455,51.314h160.7C162.369,76.552,153.966,26.084,102.501,25.238z
		 M51.587,67.583l-8.959-5.057l-8.959,5.057l1.711-10.711l-7.25-7.586l10.018-1.563l4.48-9.747l4.479,9.747l10.018,1.563
		l-7.25,7.586L51.587,67.583z M90.056,67.583l-8.961-5.057l-8.958,5.057l1.711-10.711l-7.25-7.586l10.017-1.563l4.48-9.747
		l4.48,9.747l10.017,1.563l-7.25,7.586L90.056,67.583z M128.524,67.583l-8.961-5.057l-8.96,5.057l1.71-10.711l-7.249-7.586
		l10.019-1.563l4.48-9.747l4.48,9.747l10.017,1.563l-7.25,7.586L128.524,67.583z"/>
</g>
</svg>
